HIERARCHY
ROOT Hips
{
	OFFSET -0.001795 -0.223333 0.028219
	CHANNELS 6 Xposition Yposition Zposition Zrotation Yrotation Xrotation 
	JOINT LeftUpLeg
	{
		OFFSET 0.069520 -0.091406 -0.006815
		CHANNELS 3 Zrotation Yrotation Xrotation
		JOINT LeftLeg
		{
			OFFSET 0.034277 -0.375199 -0.004496
			CHANNELS 3 Zrotation Yrotation Xrotation
			JOINT LeftFoot
			{
				OFFSET -0.013596 -0.397961 -0.043693
				CHANNELS 3 Zrotation Yrotation Xrotation
				JOINT LeftToe
				{
					OFFSET 0.026358 -0.055791 0.119288
					CHANNELS 3 Zrotation Yrotation Xrotation
					End Site
					{
						OFFSET 0.000000 0.000000 0.000000
					}
				}
			}
		}
	}
	JOINT RightUpLeg
	{
		OFFSET -0.067670 -0.090522 -0.004320
		CHANNELS 3 Zrotation Yrotation Xrotation
		JOINT RightLeg
		{
			OFFSET -0.038290 -0.382569 -0.008850
			CHANNELS 3 Zrotation Yrotation Xrotation
			JOINT RightFoot
			{
				OFFSET 0.015774 -0.398415 -0.042312
				CHANNELS 3 Zrotation Yrotation Xrotation
				JOINT RightToe
				{
					OFFSET -0.025372 -0.048144 0.123348
					CHANNELS 3 Zrotation Yrotation Xrotation
					End Site
					{
						OFFSET 0.000000 0.000000 0.000000
					}
				}
			}
		}
	}
	JOINT Spine
	{
		OFFSET -0.002533 0.108963 -0.026696
		CHANNELS 3 Zrotation Yrotation Xrotation
		JOINT Spine1
		{
			OFFSET 0.005487 0.135180 0.001092
			CHANNELS 3 Zrotation Yrotation Xrotation
			JOINT Spine2
			{
				OFFSET 0.001457 0.052922 0.025425
				CHANNELS 3 Zrotation Yrotation Xrotation
				JOINT Neck
				{
					OFFSET -0.002778 0.213870 -0.042857
					CHANNELS 3 Zrotation Yrotation Xrotation
					JOINT Head
					{
						OFFSET 0.005152 0.064970 0.051349
						CHANNELS 3 Zrotation Yrotation Xrotation
						End Site
						{
							OFFSET 0.000000 0.000000 0.000000
						}
					}
				}
				JOINT LeftShoulder
				{
					OFFSET 0.078845 0.121749 -0.034090
					CHANNELS 3 Zrotation Yrotation Xrotation
					JOINT LeftArm
					{
						OFFSET 0.090977 0.030469 -0.008868
						CHANNELS 3 Zrotation Yrotation Xrotation
						JOINT LeftForeArm
						{
							OFFSET 0.259612 -0.012772 -0.027456
							CHANNELS 3 Zrotation Yrotation Xrotation
							JOINT LeftHand
							{
								OFFSET 0.249234 0.008986 -0.001171
								CHANNELS 3 Zrotation Yrotation Xrotation
								End Site
								{
									OFFSET 0.000000 0.000000 0.000000
								}
							}
						}
					}
				}
				JOINT RightShoulder
				{
					OFFSET -0.081759 0.118833 -0.038615
					CHANNELS 3 Zrotation Yrotation Xrotation
					JOINT RightArm
					{
						OFFSET -0.096012 0.032551 -0.009143
						CHANNELS 3 Zrotation Yrotation Xrotation
						JOINT RightForeArm
						{
							OFFSET -0.253742 -0.013329 -0.021401
							CHANNELS 3 Zrotation Yrotation Xrotation
							JOINT RightHand
							{
								OFFSET -0.255298 0.007772 -0.005559
								CHANNELS 3 Zrotation Yrotation Xrotation
								End Site
								{
									OFFSET 0.000000 0.000000 0.000000
								}
							}
						}
					}
				}
			}
		}
	}
}
MOTION
Frames: 7
Frame Time: 0.050000
0.000000 0.947349 0.000000 -0.769276 -8.280604 5.649837 -0.305897 -0.731090 -7.974480 -0.390414 -0.028127 3.332903 -8.013441 -12.526232 7.347736 0.000000 0.000000 0.000000 4.010238 0.504647 -5.289877 -2.293495 0.280088 1.200403 4.050279 5.096100 6.547643 0.000000 0.000000 0.000000 2.858422 -0.347890 4.234774 -3.573920 1.633962 -1.891306 -3.828866 5.773487 5.545451 6.504223 -2.595961 -15.988817 0.000000 0.000000 0.000000 -21.805999 -7.443257 1.521042 -47.636080 -14.915601 0.204703 -4.718058 -33.049138 2.574884 0.000000 0.000000 0.000000 18.926618 1.103525 -0.613309 56.890052 5.103754 -3.245064 10.735401 30.051245 3.915108 0.000000 0.000000 0.000000 
0.004061 0.947624 0.002911 -1.126304 -8.613884 6.487705 0.980716 -0.628331 -7.598946 -2.509911 0.309168 1.425918 -8.129752 -12.344289 8.073444 0.000000 0.000000 0.000000 3.877002 0.614223 -6.162312 -1.971316 0.260849 1.442041 4.248834 5.319553 6.819270 0.000000 0.000000 0.000000 3.434225 -0.339623 3.432458 -3.267813 1.514154 -1.231500 -4.905382 6.971156 4.781735 7.232944 -2.626773 -17.631632 0.000000 0.000000 0.000000 -21.699017 -7.746008 1.259851 -48.480876 -15.452331 0.618973 -5.337469 -33.582133 2.676063 0.000000 0.000000 0.000000 19.274933 -0.424629 -1.162192 57.363586 5.274731 -3.148288 11.808109 30.353391 4.340874 0.000000 0.000000 0.000000 
0.007983 0.947596 0.004752 -0.950712 -8.888924 6.544243 0.596870 -0.616749 -7.170822 -2.699422 0.340523 0.687116 -8.090977 -12.178958 8.280720 0.000000 0.000000 0.000000 3.522411 0.667132 -6.590636 -2.218772 0.332226 2.167997 4.237853 5.454807 6.568941 0.000000 0.000000 0.000000 4.048752 -0.339626 2.959082 -3.393488 1.521653 -2.583453 -5.298245 6.641710 5.783867 6.647764 -2.493253 -16.760928 0.000000 0.000000 0.000000 -21.271763 -7.357233 1.282299 -48.458510 -16.701313 0.959932 -6.381565 -33.061118 3.012705 0.000000 0.000000 0.000000 19.030087 -0.090054 -1.069046 57.159139 5.446259 -3.148704 11.770560 31.979047 4.579775 0.000000 0.000000 0.000000 
0.011645 0.946894 0.005638 -0.813344 -9.443787 7.437213 0.975138 -0.647306 -7.855604 -4.119538 0.535472 0.202004 -7.947632 -11.780164 8.600546 0.000000 0.000000 0.000000 3.161609 0.823522 -7.854567 -2.412827 0.381420 2.616946 4.326165 5.796389 6.319603 0.000000 0.000000 0.000000 3.739716 -0.282235 2.233558 -3.214655 1.431071 -2.756010 -5.528046 6.633948 5.663052 6.712093 -2.478765 -17.241079 0.000000 0.000000 0.000000 -21.299573 -7.421832 1.394895 -48.938914 -18.025228 1.521070 -6.321178 -32.311931 2.949923 0.000000 0.000000 0.000000 18.747412 -0.858731 -1.540928 56.677732 5.864482 -2.895896 14.170032 34.270345 5.667972 0.000000 0.000000 0.000000 
0.014788 0.946788 0.005306 -0.795265 -9.978995 7.520437 0.575530 -0.685994 -8.096473 -3.882022 0.509913 0.432069 -7.648621 -11.376353 8.426416 0.000000 0.000000 0.000000 2.830597 0.889789 -8.413068 -2.319388 0.415322 3.281298 4.478674 6.159505 6.241061 0.000000 0.000000 0.000000 3.688790 -0.283180 2.279341 -3.206371 1.418005 -2.922597 -5.537924 6.153195 5.634860 6.783898 -2.559479 -17.528197 0.000000 0.000000 0.000000 -21.113171 -8.153402 2.059411 -49.034857 -19.830894 2.213073 -4.640664 -31.452570 2.464212 0.000000 0.000000 0.000000 18.196560 -0.962761 -1.745600 56.629984 6.556074 -2.535642 16.056286 36.753894 6.679416 0.000000 0.000000 0.000000 
0.017441 0.946520 0.004116 -0.949695 -10.130620 7.745830 0.511069 -0.710942 -8.387061 -3.774615 0.495695 0.390894 -7.537234 -11.238473 8.329646 0.000000 0.000000 0.000000 2.917321 0.991186 -9.155085 -2.495655 0.488735 4.012791 4.468042 6.194280 6.158567 0.000000 0.000000 0.000000 3.661475 -0.284444 2.277319 -2.849741 1.248973 -3.246306 -5.824750 5.565169 5.878398 6.605458 -2.593899 -17.059253 0.000000 0.000000 0.000000 -20.684065 -9.211718 2.881079 -49.207431 -21.856397 3.002258 -3.288918 -30.983274 2.111910 0.000000 0.000000 0.000000 17.912671 -0.468486 -1.606143 56.085400 7.313551 -2.165739 18.224775 39.859142 8.035310 0.000000 0.000000 0.000000 
0.019434 0.946533 0.002702 -1.109076 -10.656500 7.811918 0.510791 -0.720844 -8.554494 -3.743016 0.496661 0.476826 -7.260978 -10.830545 8.226327 0.000000 0.000000 0.000000 3.036522 1.040849 -9.504233 -2.703233 0.534365 4.289749 4.692958 6.580279 6.262389 0.000000 0.000000 0.000000 3.596512 -0.309614 2.679238 -2.843073 1.239521 -3.322621 -5.854164 5.182252 5.820412 6.765009 -2.714586 -17.343629 0.000000 0.000000 0.000000 -20.770524 -9.705857 3.363311 -48.712567 -23.790542 3.719848 -1.383423 -30.630768 1.620642 0.000000 0.000000 0.000000 17.700121 -0.370979 -1.694330 55.795685 7.814976 -1.899450 20.980761 42.576818 9.641063 0.000000 0.000000 0.000000 
